# xmcd
#
# Track frame offsets:
#	150
#	12193
#	22580
#	35951
#	47722
#	60822
#	71578
#	83166
#	92349
#	106043
#	116714
#	130815
#	142288
#	154434
#	163798
#	175586
#	186474
#	195934
#	207821
#	218674
#	231562
#	241288
#	252459
#	263406
#
# Disc length: 3655 seconds
#
# Revision: 1
# Processed by: cddbd v1.5.2PL0 Copyright (c) Steve Scherf et al.
# Submitted via: audiograbber 1.83.01
#
DISCID=460e4518
DTITLE=Ronnie Hawkins and The Hawks - The Dynamic Early Album Collection CD 2
DYEAR=2011
DGENRE=Rock and Roll
TTITLE0=Summertime
TTITLE1=Sometimes I Feel Like A Motherless Child
TTITLE2=I Gave My Love A Cherry
TTITLE3=Brave Man
TTITLE4=Wayfaring Stranger
TTITLE5=Virginia Bride
TTITLE6=Mister And Mississippi
TTITLE7=John Henry
TTITLE8=Fare Thee Well
TTITLE9=One Out Of Hundred
TTITLE10=The Death Of Floyd Collins
TTITLE11=Love From Afar
TTITLE12=Cold Cold Heart
TTITLE13=Hey Good Lookin' 
TTITLE14=Your Cheatin' Heart
TTITLE15=Weary Blues From Waitin' 
TTITLE16=There'll Be No Teardrops Tonight
TTITLE17=Nobody's Lonesome For Me
TTITLE18=Ramblin' Man
TTITLE19=I'm So Lonesome I Could Cry
TTITLE20=You Winn Again
TTITLE21=I Can't Help It
TTITLE22=I Hear That Lonesome Whistle 
TTITLE23=Jambalaya
EXTD=
EXTT0=
EXTT1=
EXTT2=
EXTT3=
EXTT4=
EXTT5=
EXTT6=
EXTT7=
EXTT8=
EXTT9=
EXTT10=
EXTT11=
EXTT12=
EXTT13=
EXTT14=
EXTT15=
EXTT16=
EXTT17=
EXTT18=
EXTT19=
EXTT20=
EXTT21=
EXTT22=
EXTT23=
PLAYORDER=
